<?xml version="1.0" standalone="no"?>
<!DOCTYPE svg PUBLIC "-//W3C//DTD SVG 20010904//EN"
 "http://www.w3.org/TR/2001/REC-SVG-20010904/DTD/svg10.dtd">
<svg version="1.0" xmlns="http://www.w3.org/2000/svg"
 width="1200.000000pt" height="1200.000000pt" viewBox="0 0 1200.000000 1200.000000"
 preserveAspectRatio="xMidYMid meet">
<metadata>
Created by potrace 1.14, written by Peter Selinger 2001-2017
</metadata>
<g transform="translate(0.000000,1200.000000) scale(0.100000,-0.100000)"
fill="#000000" stroke="none">
<path d="M5650 11773 c-755 -41 -1346 -282 -1900 -773 l-75 -67 -125 -18
c-616 -88 -1220 -419 -1762 -966 -567 -573 -864 -1207 -919 -1964 l-11 -158
-48 -61 c-223 -285 -400 -672 -494 -1077 -67 -291 -90 -510 -90 -854 1 -523
85 -933 279 -1351 115 -247 315 -545 496 -739 l57 -60 16 -115 c55 -374 190
-734 407 -1080 232 -371 597 -769 945 -1031 479 -360 999 -547 1652 -594 90
-7 95 -9 145 -48 159 -126 482 -301 714 -387 313 -116 633 -179 1021 -201 592
-34 1144 71 1615 308 239 120 429 251 699 484 50 44 58 47 143 58 327 44 697
173 1010 354 463 267 928 702 1219 1140 293 441 449 918 491 1510 7 83 9 90
48 140 126 159 301 482 387 714 257 694 277 1572 50 2253 -130 391 -341 750
-625 1062 l-60 67 -18 120 c-64 444 -262 905 -561 1308 -245 329 -587 664
-896 875 -425 292 -929 464 -1484 508 l-149 12 -91 67 c-253 188 -576 343
-911 439 -340 98 -796 146 -1175 125z m450 -604 c631 -73 1197 -502 1495
-1134 200 -422 288 -885 271 -1425 -13 -443 -65 -769 -176 -1095 -53 -156
-182 -415 -268 -534 -169 -237 -381 -421 -627 -545 -86 -43 -246 -109 -251
-103 -2 1 19 37 46 79 230 360 374 747 424 1138 66 516 -14 966 -260 1459
-189 380 -389 657 -698 967 -443 443 -955 753 -1466 888 -73 19 -134 37 -136
39 -7 6 164 83 260 116 390 137 963 199 1386 150z m2435 -669 c376 -149 884
-533 1172 -885 122 -150 236 -362 302 -561 162 -489 121 -1006 -122 -1552
-139 -311 -347 -603 -642 -898 -512 -513 -987 -799 -1512 -911 -117 -25 -147
-27 -348 -28 -240 0 -298 8 -490 66 -100 31 -275 106 -275 118 0 4 38 15 83
24 119 25 333 90 467 144 513 202 963 573 1254 1033 176 279 322 674 385 1040
40 237 46 318 46 660 0 342 -6 424 -46 660 -65 376 -212 769 -399 1066 l-58
92 51 -18 c29 -10 88 -32 132 -50z m-4699 -416 c605 -87 1166 -407 1672 -954
529 -572 793 -1103 828 -1667 15 -248 -51 -575 -160 -791 l-32 -64 -34 138
c-211 884 -748 1537 -1540 1872 -271 114 -584 191 -933 228 -194 20 -700 14
-877 -10 -480 -68 -858 -195 -1214 -410 -60 -36 -111 -64 -113 -62 -9 9 91
247 153 365 172 330 496 730 774 957 413 336 933 477 1476 398z m-86 -2239
c555 -58 984 -209 1325 -465 197 -148 389 -383 494 -604 51 -108 96 -224 90
-231 -2 -2 -49 26 -104 61 -122 79 -404 220 -539 269 -118 43 -362 107 -496
129 -449 74 -882 23 -1336 -159 -646 -259 -1294 -810 -1687 -1432 -84 -134
-234 -435 -282 -567 -33 -88 -92 -290 -110 -371 -7 -30 -7 -30 -37 30 -42 82
-103 245 -138 372 -117 415 -149 1010 -76 1364 75 360 247 672 520 944 367
366 918 606 1522 665 60 5 127 12 149 14 85 9 567 -4 705 -19z m7263 -545
c114 -316 169 -672 169 -1095 0 -248 -11 -354 -58 -539 -132 -522 -524 -984
-1055 -1244 -299 -146 -585 -228 -964 -274 -131 -16 -633 -16 -800 0 -828 79
-1415 368 -1756 865 -69 100 -154 266 -193 376 l-27 74 28 -19 c180 -118 385
-226 563 -297 478 -190 981 -237 1449 -136 119 26 338 96 466 150 608 252
1183 727 1586 1309 201 289 382 683 454 985 9 39 19 77 22 85 7 22 63 -94 116
-240z m-6142 -984 c153 -25 286 -66 457 -141 l63 -28 -168 -43 c-370 -93 -646
-215 -926 -406 -578 -398 -955 -995 -1096 -1738 -49 -255 -56 -339 -56 -700 0
-408 19 -597 90 -890 75 -307 210 -632 356 -855 27 -43 49 -79 47 -80 -8 -8
-272 106 -383 164 -338 177 -722 491 -971 796 -187 228 -318 534 -370 864 -23
142 -23 427 0 575 40 258 111 476 236 731 193 393 468 735 875 1084 379 326
765 540 1138 631 105 26 155 34 317 54 62 7 302 -4 391 -18z m575 -678 c-41
-58 -151 -249 -205 -355 -122 -245 -197 -472 -248 -753 -25 -132 -27 -167 -27
-405 0 -282 7 -351 64 -575 245 -975 1097 -1922 2080 -2313 123 -49 326 -113
391 -123 22 -4 41 -10 44 -14 7 -12 -160 -85 -305 -133 -305 -102 -627 -149
-1025 -150 -237 0 -354 12 -526 54 -454 111 -842 391 -1120 808 -336 504 -480
1140 -429 1893 53 773 264 1320 657 1698 160 155 326 263 532 346 125 51 140
54 117 22z m429 -353 c82 -377 248 -751 467 -1047 251 -340 540 -585 913 -774
307 -155 603 -243 1015 -301 179 -25 776 -25 965 0 479 65 895 205 1231 416
53 34 98 60 100 58 7 -7 -99 -255 -155 -363 -215 -410 -606 -863 -932 -1082
-378 -253 -888 -352 -1379 -267 -570 99 -1140 436 -1623 959 -487 528 -747
1017 -808 1519 -16 137 -6 414 20 535 34 161 143 455 161 435 4 -4 15 -44 25
-88z"/>
</g>
</svg>
